<?xml version="1.0" encoding="utf-8"?>
<!-- Generator: Adobe Illustrator 16.0.0, SVG Export Plug-In . SVG Version: 6.00 Build 0)  -->
<!DOCTYPE svg PUBLIC "-//W3C//DTD SVG 1.1//EN" "http://www.w3.org/Graphics/SVG/1.1/DTD/svg11.dtd">
<svg version="1.1" id="Layer_1" xmlns="http://www.w3.org/2000/svg" xmlns:xlink="http://www.w3.org/1999/xlink" x="0px" y="0px"
	 width="512px" height="512px" viewBox="0 0 512 512" enable-background="new 0 0 512 512" xml:space="preserve">
<g>
	<path fill="#FFFFFF" d="M190.184,328.836c-2.515,11.551,4.816,22.965,16.368,25.479c11.553,2.516,22.966-4.814,25.48-16.367
		s-5.744-74.297-5.744-74.297C226.075,263.594,192.708,317.283,190.184,328.836z"/>
	<path fill="#FFFFFF" d="M303.686,263.641c0,0-8.259,62.744-5.744,74.297s13.919,18.883,25.48,16.369
		c11.552-2.516,18.883-13.92,16.368-25.48C337.275,317.283,303.908,263.594,303.686,263.641z"/>
	<path fill="#FFFFFF" d="M450.312,369.439c-8.555-5.057-13.668-14.002-13.668-23.92c0-4.621,1.132-9.02,3.35-13.066
		c5.076-9.25,5.076-20.293,0-29.535c-2.227-4.055-3.35-8.453-3.35-13.074c0-4.49,1.039-8.777,3.071-12.73
		c4.52-8.74,4.724-18.66,0.575-27.205c-2.422-4.975-3.646-10.264-3.646-15.738c0-2.505,0.251-5.02,0.752-7.479l2.292-11.293
		l-11.524,0.168l-0.799,0.046c-25.582,0-46.395-20.813-46.395-46.396c0-4.556,0.658-9.065,1.967-13.39
		c2.71-8.973,0.808-18.781-5.094-26.25c-6.014-7.6-15.273-11.803-24.878-11.2c-15.663,0.956-33.089,3.749-53.252,8.518
		c-7.247,1.717-14.708,2.607-22.214,3.118c5.521-41.134,34.072-72.182,67.031-71.003c5.308,0.269,9.428-3.813,9.613-8.936
		s-3.813-9.428-8.936-9.613c-33.043-1.03-62.226,21.333-77.016,54.719l-4.381-29.489c-4.648-31.252-28.783-55.387-60.035-60.045
		l-37.96-5.651l5.651,37.96c4.658,31.252,28.793,55.377,60.036,60.036l33.57,5.001c-3.033,8.49-5.224,17.538-6.3,27.048
		c-7.896-0.51-15.784-1.457-23.56-3.285c-42.916-10.114-97.161-17.742-136.17,13.325c-35.502,28.255-52.547,83.892-52.111,170.075
		c0.334,64.842,38.48,136.875,92.791,175.17c25.025,17.648,51.879,26.678,78.26,26.678c12.842,0,25.583-2.145,37.932-6.469
		c7.768-2.729,16.035-2.719,23.895,0.027c54.319,18.994,131.567-3.395,181.674-96.24
		C469.112,395.172,464.203,377.662,450.312,369.439z M234.231,79.637c-23.114-3.442-40.967-21.286-44.41-44.41l-1.958-13.186
		L201.04,24c23.124,3.442,40.977,21.295,44.409,44.419l1.968,13.176L234.231,79.637z M445.153,400.498
		c-32.355,59.971-94.136,110.289-159.22,87.547c-5.947-2.078-12.053-3.117-18.149-3.117c-6.068,0-12.128,1.029-18.001,3.09
		c-40.902,14.344-76.599-1.801-99.351-17.854c-48.91-34.498-84.625-101.828-84.922-160.1
		c-0.427-80.134,14.336-130.983,45.096-155.471c25.573-20.358,62.671-23.374,120.35-9.78c11.432,2.691,23.114,4.083,34.75,4.25
		c0.427,0.075,0.798,0.288,1.243,0.297c0.121,0,0.232,0,0.344,0c0.482,0,0.909-0.195,1.373-0.27
		c11.961-0.046,23.838-1.41,35.334-4.129c19.125-4.528,35.512-7.164,50.107-8.063c3.609-0.176,6.913,1.308,9.187,4.185
		c2.171,2.747,2.867,6.162,1.893,9.372c-1.837,6.059-2.765,12.369-2.765,18.753c0,32.671,24.236,59.776,55.674,64.294
		c0,0.223,0,0.437,0,0.659c0,8.305,1.856,16.321,5.512,23.846c1.568,3.229,1.438,7.08-0.371,10.588
		c-3.358,6.531-5.141,13.871-5.141,21.24c0,7.664,1.949,15.273,5.633,22c2.069,3.768,2.069,7.914,0,11.682
		c-3.684,6.729-5.633,14.336-5.633,22.002c0,16.303,8.731,31.586,22.78,39.891C446.146,388.545,448.03,395.162,445.153,400.498z"/>
</g>
</svg>
