<?xml version="1.0" encoding="utf-8"?>
<!-- Generator: Adobe Illustrator 16.0.0, SVG Export Plug-In . SVG Version: 6.00 Build 0)  -->
<!DOCTYPE svg PUBLIC "-//W3C//DTD SVG 1.1//EN" "http://www.w3.org/Graphics/SVG/1.1/DTD/svg11.dtd">
<svg version="1.1" id="Layer_1" xmlns="http://www.w3.org/2000/svg" xmlns:xlink="http://www.w3.org/1999/xlink" x="0px" y="0px"
	 width="512px" height="512px" viewBox="0 0 512 512" enable-background="new 0 0 512 512" xml:space="preserve">
<g>
	<g>
		<path fill="#454545" d="M94.328,431.107c35.204,49.217,93.902,80.892,161.669,80.892c55.084,0,104.207-20.913,139.567-55.17
			c16.363-15.852,29.731-34.588,39.434-55.407c11.292-24.236,17.594-51.301,17.594-80.074c0-46.617-16.218-111.1-41.598-168.794
			c-4.694-10.671-9.667-21.139-14.948-31.188c-8.477-16.143-20.279-36.173-34.937-55.287C334.609,31.525,298.732,0,255.997,0
			C196.15,0,149.742,61.802,123.734,107.183c-2.838,4.95-5.442,9.713-7.781,14.175c-9.905,18.853-18.824,39.091-26.535,59.656
			c-18.614,49.652-30.011,101.265-30.011,140.329c0,0.126,0.011,0.248,0.011,0.375C59.49,362.766,72.331,400.348,94.328,431.107z
			 M314.451,365.463c-0.94,6.639-3.592,12.778-7.218,18.035c-5.28,8.65-14.437,18.689-29.743,28.274
			c-29.245,18.312-34.781,36.103-36.684,43.774c-0.389,1.578-0.894,1.549-1.288-0.029c-1.822-7.24-9.064-26.825-36.091-43.745
			c-15.308-9.585-23.918-19.624-29.198-28.274c-3.626-5.258-6.099-11.391-7.038-18.035c-0.552-3.324-0.429-5.29-0.412-5.29
			c-0.006-0.245-0.018-0.489-0.018-0.737c0-23.205,18.528-42.016,41.389-42.016c13.288,0,25.102,6.365,32.673,16.242
			c7.573-9.882,19.387-16.242,32.674-16.242c22.855,0,41.39,18.812,41.39,42.016c0,0.249-0.013,0.494,0,0.737
			C314.88,360.165,315.003,362.133,314.451,365.463z M321.339,274.404c-12.916-5.111-21.098-11.76-26.604-17.865
			c-3.65-3.638-6.639-8.188-8.623-13.42c-1.055-2.605-1.352-4.225-1.341-4.23c-0.052-0.197-0.11-0.394-0.156-0.598
			c-4.571-18.853,5.072-37.373,21.534-41.365c9.573-2.321,19.338,0.783,26.736,7.485c3.506-9.348,10.766-16.584,20.338-18.904
			c16.468-3.993,33.521,8.048,38.094,26.9c0.047,0.203,0.088,0.4,0.146,0.598c0,0,0.475,1.579,0.73,4.375
			c0.633,5.558-0.069,11.007-1.647,15.909c-2.101,7.95-7.642,16.968-15.853,28.165c-14.269,19.457-29.546,47.012-29.401,53.582
			c0.028,1.353-0.336,1.415-0.934,0.203C341.613,309.678,344.143,283.434,321.339,274.404z M424.879,374.975
			c2.273,1.433,4.207,3.66,5.768,6.469c-10.636,29.771-29.023,55.722-52.947,75.728c-0.54-0.114-1.074-0.185-1.62-0.324
			c-19.241-4.55-34.53-0.992-40.361,0.216c-1.248,0.301-1.335,0.021-0.215-0.721c5.076-3.204,18.893-14.339,18.55-37.514
			c-0.389-11.777-0.284-20.314,0.539-26.888c0.296-4.126,1.073-8.351,2.57-12.533c0.709-2.118,1.295-3.285,1.3-3.285
			c0.075-0.149,0.134-0.302,0.203-0.446c6.256-13.543,17.971-25.229,30.928-20.326c7.398,3.006,13.085,12.189,14.053,23.75
			C410.291,372.885,417.909,370.136,424.879,374.975z M355.149,88.284c-1.752-4.618-2.401-9.098-1.537-12.979
			c13.375,17.831,24.254,36.422,32.158,51.456c6.84,13.021,13.183,26.715,18.99,40.692c-1.793,5.815-2.634,10.538-3.128,13.202
			c-0.19,1.271-0.487,1.247-0.748-0.076c-1.049-5.913-6.127-22.914-27.712-31.362c-11.054-4.097-18.91-7.422-24.689-10.671
			c-3.708-1.833-7.323-4.155-10.63-7.12c-1.694-1.457-2.554-2.442-2.548-2.442c-0.11-0.128-0.227-0.238-0.337-0.354
			c-10.172-10.915-16.56-26.175-7.119-36.318C333.438,86.602,344.085,84.809,355.149,88.284z M239.321,13.45
			c6.905,1.108,12.894,3.499,17.233,6.695c4.195-3.093,9.922-5.437,16.531-6.591c21.991,4.966,41.877,19.026,59.052,36.539
			c-0.243,1.868-0.812,3.626-1.753,5.216c-0.075,0.139-0.156,0.268-0.209,0.413c0.006,0-0.453,1.149-1.915,2.728
			c-2.762,3.22-6.836,5.373-11.315,6.864c-6.783,2.791-16.886,4.961-30.556,7.677c-25.92,6.261-28.311,19.606-29.831,23.841
			c-0.261,0.993-0.54,6.736-0.783,5.745c-1.236-4.049-5.228-23.947-29.61-29.442c-13.682-2.623-23.355-4.949-30.132-7.746
			c-4.479-1.48-8.402-3.714-11.158-6.939c-1.462-1.572-1.915-2.721-1.897-2.733c-0.076-0.134-0.156-0.261-0.232-0.4
			c-1.126-1.898-1.677-4.045-1.811-6.319C197.96,31.878,217.619,18.226,239.321,13.45z M126.224,126.761
			c2.843-5.414,6.076-11.285,9.667-17.419c11.408,3.052,20.326,6.928,25.258,16.908c10.317-7.683,24.296-10.862,38.349-7.486
			c24.168,5.809,39.364,28.81,33.939,51.376c-0.059,0.238-0.128,0.476-0.174,0.72c0,0-0.331,1.943-1.694,5.036
			c-2.547,6.221-6.79,11.506-11.849,15.696c-7.607,7.067-19.636,14.5-38.059,19.926c-35.204,10.37-33.608,37.867-37.415,44.842
			c-0.783,1.433-1.306,1.276-1.358-0.354c-0.237-7.508-14.917-34.188-39.539-57.514c-2.303-2.182-4.154-4.126-5.819-5.971
			C105.655,169.892,115.333,147.488,126.224,126.761z M83.483,290.838c13.844-12.68,35.795-2.723,49.025,22.242
			c0.139,0.266,0.273,0.532,0.424,0.794c0,0,1.196,2.048,2.756,5.93c3.215,7.665,5.106,15.737,5.907,23.401
			c1.735,12.232,1.909,28.108-1.892,46.908c-7.27,35.918-0.481,58.125,2.745,67.432c0.662,1.915,0.342,2.157-0.794,0.686
			c-3.876-5.026-13.451-15.655-28.717-22.155c-25.479-29.906-40.889-68.255-41.824-110.659c0.614,0.342,1.23,0.633,1.845,1.016
			C71.907,311.605,75.435,298.207,83.483,290.838z"/>
	</g>
</g>
</svg>
