<?xml version="1.0" encoding="iso-8859-1"?>
<!-- Generator: Adobe Illustrator 16.0.0, SVG Export Plug-In . SVG Version: 6.00 Build 0)  -->
<!DOCTYPE svg PUBLIC "-//W3C//DTD SVG 1.1//EN" "http://www.w3.org/Graphics/SVG/1.1/DTD/svg11.dtd">
<svg xmlns="http://www.w3.org/2000/svg" xmlns:xlink="http://www.w3.org/1999/xlink" version="1.1" id="Capa_1" x="0px" y="0px" width="512px" height="512px" viewBox="0 0 540.016 540.016" style="enable-background:new 0 0 540.016 540.016;" xml:space="preserve">
<g>
	<g>
		<path d="M99.489,454.697c37.13,51.91,99.04,85.318,170.516,85.318c58.098,0,109.909-22.057,147.204-58.189    c17.259-16.719,31.359-36.48,41.592-58.439c11.909-25.562,18.556-54.107,18.556-84.455c0-49.168-17.105-117.18-43.874-178.031    c-4.951-11.255-10.196-22.295-15.766-32.895c-8.94-17.026-21.389-38.152-36.848-58.312C352.919,33.25,315.079,0,270.005,0    c-63.122,0-112.069,65.184-139.5,113.048c-2.993,5.221-5.74,10.245-8.207,14.951c-10.447,19.884-19.854,41.23-27.987,62.92    c-19.633,52.369-31.653,106.806-31.653,148.007c0,0.133,0.012,0.262,0.012,0.396C62.745,382.615,76.289,422.254,99.489,454.697z     M331.658,385.461c-0.992,7.002-3.789,13.477-7.613,19.021c-5.569,9.125-15.227,19.713-31.371,29.822    c-30.845,19.314-36.684,38.078-38.691,46.17c-0.41,1.664-0.943,1.633-1.359-0.031c-1.921-7.637-9.56-28.293-38.066-46.139    c-16.145-10.109-25.227-20.697-30.796-29.822c-3.825-5.545-6.432-12.014-7.423-19.021c-0.582-3.506-0.453-5.58-0.435-5.58    c-0.006-0.258-0.019-0.516-0.019-0.777c0-24.475,19.542-44.316,43.654-44.316c14.015,0,26.475,6.715,34.461,17.131    c7.987-10.422,20.447-17.131,34.462-17.131c24.106,0,43.654,19.842,43.654,44.316c0,0.262-0.013,0.52,0,0.777    C332.11,379.873,332.239,381.949,331.658,385.461z M338.922,289.42c-13.623-5.391-22.252-12.404-28.06-18.843    c-3.85-3.837-7.002-8.636-9.095-14.155c-1.113-2.748-1.426-4.456-1.414-4.462c-0.055-0.208-0.116-0.416-0.165-0.631    c-4.822-19.884,5.35-39.418,22.712-43.629c10.098-2.448,20.397,0.826,28.2,7.895c3.697-9.859,11.354-17.491,21.451-19.938    c17.368-4.211,35.355,8.488,40.178,28.372c0.049,0.214,0.092,0.422,0.153,0.63c0,0,0.501,1.665,0.771,4.615    c0.667,5.862-0.073,11.609-1.738,16.78c-2.215,8.385-8.06,17.896-16.72,29.706c-15.049,20.521-31.163,49.584-31.01,56.514    c0.03,1.426-0.354,1.492-0.985,0.213C360.306,326.623,362.974,298.943,338.922,289.42z M448.128,395.492    c2.398,1.512,4.437,3.861,6.083,6.824c-11.218,31.4-30.612,58.77-55.845,79.871c-0.569-0.121-1.133-0.195-1.708-0.342    c-20.294-4.799-36.42-1.047-42.57,0.227c-1.316,0.318-1.408,0.023-0.227-0.76c5.354-3.379,19.927-15.123,19.565-39.566    c-0.41-12.422-0.3-21.426,0.569-28.359c0.312-4.352,1.132-8.807,2.711-13.219c0.747-2.234,1.365-3.465,1.371-3.465    c0.079-0.158,0.141-0.318,0.214-0.471c6.598-14.283,18.954-26.609,32.62-21.438c7.803,3.17,13.801,12.857,14.822,25.049    C432.742,393.289,440.777,390.389,448.128,395.492z M374.583,93.115c-1.848-4.871-2.533-9.596-1.621-13.69    c14.106,18.807,25.581,38.415,33.917,54.272c7.215,13.733,13.904,28.177,20.03,42.919c-1.891,6.133-2.778,11.114-3.299,13.924    c-0.201,1.34-0.514,1.315-0.789-0.08c-1.107-6.236-6.463-24.168-29.229-33.078c-11.658-4.321-19.944-7.828-26.04-11.255    c-3.911-1.934-7.724-4.382-11.212-7.51c-1.787-1.536-2.693-2.576-2.687-2.576c-0.116-0.135-0.239-0.251-0.355-0.373    c-10.729-11.512-17.466-27.607-7.509-38.306C351.683,91.341,362.913,89.449,374.583,93.115z M252.416,14.186    c7.283,1.169,13.599,3.69,18.176,7.062c4.425-3.262,10.465-5.734,17.436-6.952c23.194,5.238,44.168,20.067,62.283,38.538    c-0.257,1.97-0.856,3.824-1.849,5.501c-0.079,0.147-0.165,0.282-0.22,0.435c0.006,0-0.478,1.212-2.02,2.877    c-2.913,3.396-7.21,5.667-11.935,7.24c-7.154,2.943-17.809,5.232-32.228,8.097c-27.338,6.604-29.859,20.679-31.463,25.146    c-0.275,1.047-0.569,7.105-0.826,6.059c-1.304-4.271-5.514-25.257-31.23-31.053c-14.431-2.766-24.633-5.22-31.781-8.17    c-4.725-1.561-8.862-3.917-11.769-7.319c-1.542-1.658-2.02-2.87-2.001-2.883c-0.08-0.141-0.165-0.275-0.245-0.422    c-1.188-2.002-1.769-4.266-1.91-6.665C208.792,33.623,229.527,19.223,252.416,14.186z M133.131,133.697    c2.999-5.71,6.408-11.903,10.196-18.372c12.032,3.219,21.438,7.307,26.64,17.833c10.881-8.103,25.625-11.456,40.447-7.895    c25.49,6.126,41.518,30.386,35.796,54.187c-0.062,0.251-0.135,0.502-0.184,0.759c0,0-0.349,2.05-1.787,5.312    c-2.687,6.561-7.161,12.136-12.497,16.555c-8.023,7.454-20.71,15.294-40.141,21.016c-37.13,10.937-35.447,39.939-39.462,47.296    c-0.826,1.511-1.377,1.347-1.432-0.374c-0.25-7.919-15.734-36.059-41.702-60.661c-2.429-2.301-4.382-4.352-6.138-6.298    C111.436,179.188,121.644,155.558,133.131,133.697z M88.051,306.752c14.602-13.373,37.754-2.871,51.708,23.459    c0.147,0.281,0.288,0.562,0.447,0.838c0,0,1.261,2.16,2.907,6.254c3.391,8.084,5.386,16.598,6.23,24.682    c1.83,12.902,2.014,29.646-1.995,49.475c-7.668,37.883-0.508,61.305,2.895,71.121c0.698,2.02,0.361,2.275-0.838,0.723    c-4.088-5.301-14.187-16.512-30.288-23.367c-26.873-31.543-43.127-71.99-44.113-116.715c0.648,0.361,1.297,0.668,1.946,1.072    C75.842,328.656,79.562,314.525,88.051,306.752z" fill="#FFFFFF"/>
	</g>
</g>
<g>
</g>
<g>
</g>
<g>
</g>
<g>
</g>
<g>
</g>
<g>
</g>
<g>
</g>
<g>
</g>
<g>
</g>
<g>
</g>
<g>
</g>
<g>
</g>
<g>
</g>
<g>
</g>
<g>
</g>
</svg>
