<?xml version="1.0" standalone="no"?>
<!DOCTYPE svg PUBLIC "-//W3C//DTD SVG 20010904//EN"
 "http://www.w3.org/TR/2001/REC-SVG-20010904/DTD/svg10.dtd">
<svg version="1.0" xmlns="http://www.w3.org/2000/svg"
 width="219.000000pt" height="240.000000pt" viewBox="0 0 219.000000 240.000000"
 preserveAspectRatio="xMidYMid meet">
<metadata>
Created by potrace 1.10, written by Peter Selinger 2001-2011
</metadata>
<g transform="translate(0.000000,240.000000) scale(0.100000,-0.100000)"
fill="#000000" stroke="none">
<path d="M1562 2213 c-26 -5 -298 -269 -319 -309 -16 -32 -16 -46 -1 -79 14
-32 69 -59 98 -50 12 4 54 36 92 71 38 35 73 62 77 60 9 -6 6 -430 -4 -445 -4
-7 -98 -11 -288 -11 -245 -1 -287 -3 -317 -18 -46 -23 -49 -42 -48 -323 0
-125 -3 -232 -6 -238 -5 -8 -93 -11 -286 -11 l-279 0 -28 -24 -28 -24 0 -305
c0 -343 -1 -337 70 -337 99 0 105 18 105 296 l0 214 260 0 c387 0 370 -16 370
347 0 143 4 234 10 238 5 3 130 6 277 6 148 0 284 4 304 9 63 17 69 46 69 348
0 187 3 262 11 262 6 0 40 -27 75 -59 34 -33 72 -62 83 -66 27 -8 69 13 94 46
36 50 20 78 -149 246 -85 84 -159 153 -166 153 -7 0 -22 2 -33 4 -11 2 -30 2
-43 -1z"/>
</g>
</svg>
